<svg width="61" height="17" viewBox="0 0 61 17" fill="none" xmlns="http://www.w3.org/2000/svg">
<path d="M6.04004 15H3.5V5.20898L0.467773 6.14941V4.08398L5.76758 2.18555H6.04004V15ZM16.1475 9.88477C15.4854 10.5352 14.7119 10.8604 13.8271 10.8604C12.6963 10.8604 11.791 10.4736 11.1113 9.7002C10.4316 8.9209 10.0918 7.87207 10.0918 6.55371C10.0918 5.71582 10.2734 4.94824 10.6367 4.25098C11.0059 3.54785 11.5186 3.00293 12.1748 2.61621C12.8311 2.22363 13.5693 2.02734 14.3896 2.02734C15.2334 2.02734 15.9834 2.23828 16.6396 2.66016C17.2959 3.08203 17.8057 3.68848 18.1689 4.47949C18.5322 5.27051 18.7168 6.17578 18.7227 7.19531V8.13574C18.7227 10.2686 18.1924 11.9443 17.1318 13.1631C16.0713 14.3818 14.5684 15.0322 12.623 15.1143L11.999 15.123V13.0049L12.5615 12.9961C14.7705 12.8965 15.9658 11.8594 16.1475 9.88477ZM14.4512 8.91797C14.8613 8.91797 15.2129 8.8125 15.5059 8.60156C15.8047 8.39062 16.0303 8.13574 16.1826 7.83691V6.79102C16.1826 5.92969 16.0186 5.26172 15.6904 4.78711C15.3623 4.3125 14.9229 4.0752 14.3721 4.0752C13.8623 4.0752 13.4434 4.30957 13.1152 4.77832C12.7871 5.24121 12.623 5.82422 12.623 6.52734C12.623 7.22461 12.7812 7.79883 13.0977 8.25C13.4199 8.69531 13.8711 8.91797 14.4512 8.91797ZM29.1553 9.70898C29.1553 11.4785 28.7891 12.832 28.0566 13.7695C27.3242 14.707 26.252 15.1758 24.8398 15.1758C23.4453 15.1758 22.3789 14.7158 21.6406 13.7959C20.9023 12.876 20.5244 11.5576 20.5068 9.84082V7.48535C20.5068 5.69824 20.876 4.3418 21.6143 3.41602C22.3584 2.49023 23.4277 2.02734 24.8223 2.02734C26.2168 2.02734 27.2832 2.4873 28.0215 3.40723C28.7598 4.32129 29.1377 5.63672 29.1553 7.35352V9.70898ZM26.6152 7.125C26.6152 6.06445 26.4688 5.29395 26.1758 4.81348C25.8887 4.32715 25.4375 4.08398 24.8223 4.08398C24.2246 4.08398 23.7822 4.31543 23.4951 4.77832C23.2139 5.23535 23.0645 5.95313 23.0469 6.93164V10.043C23.0469 11.0859 23.1875 11.8623 23.4688 12.3721C23.7559 12.876 24.2129 13.1279 24.8398 13.1279C25.4609 13.1279 25.9092 12.8848 26.1846 12.3984C26.46 11.9121 26.6035 11.168 26.6152 10.166V7.125ZM39.4912 9.70898C39.4912 11.4785 39.125 12.832 38.3926 13.7695C37.6602 14.707 36.5879 15.1758 35.1758 15.1758C33.7812 15.1758 32.7148 14.7158 31.9766 13.7959C31.2383 12.876 30.8604 11.5576 30.8428 9.84082V7.48535C30.8428 5.69824 31.2119 4.3418 31.9502 3.41602C32.6943 2.49023 33.7637 2.02734 35.1582 2.02734C36.5527 2.02734 37.6191 2.4873 38.3574 3.40723C39.0957 4.32129 39.4736 5.63672 39.4912 7.35352V9.70898ZM36.9512 7.125C36.9512 6.06445 36.8047 5.29395 36.5117 4.81348C36.2246 4.32715 35.7734 4.08398 35.1582 4.08398C34.5605 4.08398 34.1182 4.31543 33.8311 4.77832C33.5498 5.23535 33.4004 5.95313 33.3828 6.93164V10.043C33.3828 11.0859 33.5234 11.8623 33.8047 12.3721C34.0918 12.876 34.5488 13.1279 35.1758 13.1279C35.7969 13.1279 36.2451 12.8848 36.5205 12.3984C36.7959 11.9121 36.9395 11.168 36.9512 10.166V7.125ZM49.8271 9.70898C49.8271 11.4785 49.4609 12.832 48.7285 13.7695C47.9961 14.707 46.9238 15.1758 45.5117 15.1758C44.1172 15.1758 43.0508 14.7158 42.3125 13.7959C41.5742 12.876 41.1963 11.5576 41.1787 9.84082V7.48535C41.1787 5.69824 41.5479 4.3418 42.2861 3.41602C43.0303 2.49023 44.0996 2.02734 45.4941 2.02734C46.8887 2.02734 47.9551 2.4873 48.6934 3.40723C49.4316 4.32129 49.8096 5.63672 49.8271 7.35352V9.70898ZM47.2871 7.125C47.2871 6.06445 47.1406 5.29395 46.8477 4.81348C46.5605 4.32715 46.1094 4.08398 45.4941 4.08398C44.8965 4.08398 44.4541 4.31543 44.167 4.77832C43.8857 5.23535 43.7363 5.95313 43.7188 6.93164V10.043C43.7188 11.0859 43.8594 11.8623 44.1406 12.3721C44.4277 12.876 44.8848 13.1279 45.5117 13.1279C46.1328 13.1279 46.5811 12.8848 46.8564 12.3984C47.1318 11.9121 47.2754 11.168 47.2871 10.166V7.125ZM57.623 11.6338C57.623 11.1533 57.4883 10.7725 57.2188 10.4912C56.9551 10.2041 56.5039 9.94043 55.8652 9.7002C55.2266 9.45996 54.6758 9.22266 54.2129 8.98828C53.75 8.74805 53.3516 8.47559 53.0176 8.1709C52.6895 7.86035 52.4316 7.49707 52.2441 7.08105C52.0625 6.66504 51.9717 6.16992 51.9717 5.5957C51.9717 4.60547 52.2881 3.79395 52.9209 3.16113C53.5537 2.52832 54.3945 2.15918 55.4434 2.05371V0.172852H56.8496V2.08008C57.8867 2.22656 58.6982 2.66016 59.2842 3.38086C59.8701 4.0957 60.1631 5.02441 60.1631 6.16699H57.623C57.623 5.46387 57.4766 4.93945 57.1836 4.59375C56.8965 4.24219 56.5098 4.06641 56.0234 4.06641C55.543 4.06641 55.1709 4.2041 54.9072 4.47949C54.6436 4.74902 54.5117 5.12402 54.5117 5.60449C54.5117 6.0498 54.6406 6.40723 54.8984 6.67676C55.1562 6.94629 55.6338 7.22168 56.3311 7.50293C57.0342 7.78418 57.6113 8.05078 58.0625 8.30273C58.5137 8.54883 58.8945 8.83008 59.2051 9.14648C59.5156 9.45703 59.7529 9.81445 59.917 10.2188C60.0811 10.6172 60.1631 11.083 60.1631 11.6162C60.1631 12.6123 59.8525 13.4209 59.2314 14.042C58.6104 14.6631 57.7549 15.0293 56.665 15.1406V16.8896H55.2676V15.1494C54.0664 15.0205 53.1348 14.5957 52.4727 13.875C51.8164 13.1484 51.4883 12.1846 51.4883 10.9834H54.0283C54.0283 11.6807 54.1924 12.2168 54.5205 12.5918C54.8545 12.9609 55.332 13.1455 55.9531 13.1455C56.4688 13.1455 56.876 13.0107 57.1748 12.7412C57.4736 12.4658 57.623 12.0967 57.623 11.6338Z" fill="url(#paint0_linear)"/>
<defs>
<linearGradient id="paint0_linear" x1="-1" y1="8.5" x2="62" y2="8.5" gradientUnits="userSpaceOnUse">
<stop stop-color="#FF0099"/>
<stop offset="1" stop-color="#5131E4"/>
</linearGradient>
</defs>
</svg>
